# xmcd
#
# Track frame offsets:
#  150
#  12094
#  29363
#  44939
#  57992
#  69161
#  81989
#  101779
#  114566
#  128983
#  143050
#  156354
#  169480
#
# Disc length: 2473 seconds
#
# Revision: 0
# Processed by: cddbd v1.5.1PL0 Copyright (c) Steve Scherf et al.
# Submitted via: AltoMP3_Maker 3.0
#
DISCID=bb09a70d
DTITLE=Mary Duff - Shades Of Blue
DYEAR=1900
DGENRE=
TTITLE0=Wounded Hearts
TTITLE1=Road To eden
TTITLE2=A Face In The Crowd
TTITLE3=Tomorrow Just Like Yesterday
TTITLE4=I Just Knew
TTITLE5=Michael
TTITLE6=The Dark Island
TTITLE7=Suffering In Silence
TTITLE8=I Don't Blame You
TTITLE9=I'd Just As Soon Go
TTITLE10=Moone's Living Here
TTITLE11=Love Lines
TTITLE12=Isle Of Hope
EXTD=
EXTT0=
EXTT1=
EXTT2=
EXTT3=
EXTT4=
EXTT5=
EXTT6=
EXTT7=
EXTT8=
EXTT9=
EXTT10=
EXTT11=
EXTT12=
PLAYORDER=
